HIERARCHY
ROOT Hips
{
	OFFSET -3.958830 18.904000 13.208200
	CHANNELS 6 Xposition Yposition Zposition Zrotation Yrotation Xrotation 
	JOINT LHipJoint
	{
		OFFSET 0.000000 0.000000 0.000000
		CHANNELS 3 Zrotation Yrotation Xrotation
		JOINT LeftUpLeg
		{
			OFFSET 1.800000 -1.400000 0.085000
			CHANNELS 3 Zrotation Yrotation Xrotation
			JOINT LeftLeg
			{
				OFFSET 2.215000 -6.000000 0.000000
				CHANNELS 3 Zrotation Yrotation Xrotation
				JOINT LeftFoot
				{
					OFFSET 2.500000 -6.900000 0.000000
					CHANNELS 3 Zrotation Yrotation Xrotation
					JOINT LeftToeBase
					{
						OFFSET 0.200000 -0.500000 1.950000
						CHANNELS 3 Zrotation Yrotation Xrotation
						End Site
						{
							OFFSET 0.000000 0.000000 0.000000
						}
					}
				}
			}
		}
	}
	JOINT RHipJoint
	{
		OFFSET 0.000000 0.000000 0.000000
		CHANNELS 3 Zrotation Yrotation Xrotation
		JOINT RightUpLeg
		{
			OFFSET -1.800000 -1.400000 0.085000
			CHANNELS 3 Zrotation Yrotation Xrotation
			JOINT RightLeg
			{
				OFFSET -2.215000 -6.000000 0.000000
				CHANNELS 3 Zrotation Yrotation Xrotation
				JOINT RightFoot
				{
					OFFSET -2.500000 -6.900000 0.000000
					CHANNELS 3 Zrotation Yrotation Xrotation
					JOINT RightToeBase
					{
						OFFSET -0.200000 -0.500000 1.950000
						CHANNELS 3 Zrotation Yrotation Xrotation
						End Site
						{
							OFFSET 0.000000 0.000000 0.000000
						}
					}
				}
			}
		}
	}
	JOINT LowerBack
	{
		OFFSET 0.000000 0.000000 0.000000
		CHANNELS 3 Zrotation Yrotation Xrotation
		JOINT Spine
		{
			OFFSET -0.087000 1.940000 -0.288900
			CHANNELS 3 Zrotation Yrotation Xrotation
			JOINT Spine1
			{
				OFFSET 0.000000 1.950000 0.060000
				CHANNELS 3 Zrotation Yrotation Xrotation
				JOINT Neck
				{
					OFFSET 0.000000 0.000000 0.000000
					CHANNELS 3 Zrotation Yrotation Xrotation
					JOINT Neck1
					{
						OFFSET 0.000000 1.600000 0.340000
						CHANNELS 3 Zrotation Yrotation Xrotation
						JOINT Head
						{
							OFFSET 0.000000 1.667000 -0.240000
							CHANNELS 3 Zrotation Yrotation Xrotation
							End Site
							{
								OFFSET 0.000000 0.000000 0.000000
							}
						}
					}
				}
				JOINT LeftShoulder
				{
					OFFSET 0.000000 0.000000 0.000000
					CHANNELS 3 Zrotation Yrotation Xrotation
					JOINT LeftArm
					{
						OFFSET 2.700000 1.550000 -0.730000
						CHANNELS 3 Zrotation Yrotation Xrotation
						JOINT LeftForeArm
						{
							OFFSET 5.450000 0.000000 0.000000
							CHANNELS 3 Zrotation Yrotation Xrotation
							JOINT LeftHand
							{
								OFFSET 3.450000 0.000000 0.000000
								CHANNELS 3 Zrotation Yrotation Xrotation
								JOINT LeftHandIndex1
								{
									OFFSET 0.750000 0.000000 0.000000
									CHANNELS 3 Zrotation Yrotation Xrotation
									End Site
									{
										OFFSET 0.000000 0.000000 0.000000
									}
								}
							}
						}
					}
				}
				JOINT RightShoulder
				{
					OFFSET 0.000000 0.000000 0.000000
					CHANNELS 3 Zrotation Yrotation Xrotation
					JOINT RightArm
					{
						OFFSET -2.700000 1.550000 -0.730000
						CHANNELS 3 Zrotation Yrotation Xrotation
						JOINT RightForeArm
						{
							OFFSET -5.450000 0.000000 0.000000
							CHANNELS 3 Zrotation Yrotation Xrotation
							JOINT RightHand
							{
								OFFSET -3.450000 0.000000 0.000000
								CHANNELS 3 Zrotation Yrotation Xrotation
								JOINT RightHandIndex1
								{
									OFFSET -0.750000 0.000000 0.000000
									CHANNELS 3 Zrotation Yrotation Xrotation
									End Site
									{
										OFFSET 0.000000 0.000000 0.000000
									}
								}
							}
						}
					}
				}
			}
		}
	}
}
MOTION
Frames: 9
Frame Time: 0.016667
-0.306470 15.871640 -10.303720 -0.787750 10.829147 11.044287 -15.323793 9.940847 5.520791 -18.911738 -12.136136 -63.691642 5.906299 3.592180 35.589803 -0.521697 5.217170 2.789779 0.111240 -0.576080 0.232510 18.691914 -7.807501 4.854823 -15.165030 25.203763 -30.133597 32.605014 -25.440969 59.719212 -2.368915 -12.368017 0.523606 -0.288140 0.274750 0.218600 -4.033939 -0.757440 -9.624566 20.731121 6.700408 48.807702 -5.669466 13.973134 -10.244434 0.275492 -13.928624 -7.571489 -23.266382 4.010469 25.526400 -0.313310 -4.907760 -26.293030 -29.594875 7.492742 -0.266379 -46.831364 23.161432 -13.949735 18.904433 -34.689719 -4.652995 -3.580884 2.717899 0.948470 -0.102030 -0.058800 0.062140 26.263869 13.036303 6.689397 48.484177 8.430199 -7.547773 79.392844 68.510816 44.241904 2.343694 -1.283419 -0.417140 0.331730 0.242220 -0.332550 
-0.293820 15.834530 -10.241620 -0.634439 12.354428 9.290733 -15.373853 10.004474 5.531155 -18.470744 -12.551018 -62.529112 5.627867 3.908375 38.550945 -0.350544 5.682738 2.616389 0.149840 -0.523990 0.209190 18.654453 -7.548383 4.878229 -16.608582 25.083762 -30.186925 36.123172 -28.082819 59.403749 -2.542910 -12.794304 0.409041 -0.295910 0.235350 0.241770 -3.900542 -1.315686 -9.685273 21.188729 5.275621 52.061379 -4.845935 12.582137 -11.932973 -0.142635 -14.792165 -6.667670 -25.495296 4.867212 26.215330 1.968450 -6.295650 -27.258310 -30.664464 9.443142 -0.875884 -46.633979 24.793436 -13.671666 26.630385 -36.055491 -6.198383 -3.562456 2.800573 0.931050 -0.151590 -0.026000 0.091960 27.924907 11.309386 6.001277 46.214179 7.555018 -7.196565 93.978245 67.941516 55.504243 2.604088 -0.986711 -0.343820 0.276750 0.207180 -0.287540 
-0.289220 15.817740 -10.211630 -1.361474 12.302950 7.542009 -15.396362 10.161972 5.404164 -16.974307 -11.848849 -61.663086 4.737005 4.595228 40.357631 -0.252945 6.064877 2.467723 0.180110 -0.472870 0.200460 18.625720 -7.446674 4.933221 -16.415500 25.312952 -30.372723 37.087402 -28.928428 59.576244 -2.631619 -12.936936 0.379371 -0.294010 0.204170 0.260840 -3.823975 -1.644591 -9.686971 21.909212 4.513432 54.985868 -4.663732 12.311858 -12.565858 0.071686 -15.019590 -6.230417 -26.268211 5.065618 27.326582 3.091960 -7.106140 -29.011090 -30.909197 10.273076 -1.566448 -46.882974 24.493234 -12.715262 34.390899 -33.310243 -6.865324 -3.606757 2.800301 0.938250 -0.183420 0.013210 0.106940 27.568370 10.769399 5.771083 45.282267 7.132144 -8.747161 108.109194 67.080585 68.671296 2.624968 -0.724836 -0.297610 0.256000 0.186970 -0.263190 
-0.298730 15.829460 -10.204650 -1.571615 11.131396 5.931491 -15.423863 10.373962 5.240113 -15.418035 -10.714080 -60.769198 4.067282 5.237316 40.691716 -0.189152 6.168885 2.406071 0.222430 -0.392610 0.216150 18.578057 -7.442586 4.989444 -16.308945 25.467485 -30.832406 36.229069 -28.515106 60.176567 -2.653631 -12.916789 0.386685 -0.282020 0.155380 0.279290 -3.715703 -1.872691 -9.670281 21.507659 5.015081 57.669411 -4.204680 12.967888 -11.820591 0.460626 -14.512278 -6.456199 -25.402761 4.578778 29.217199 3.509080 -7.428240 -30.382810 -30.467472 9.409784 -1.712870 -45.947244 22.393038 -11.353317 37.169284 -28.822273 -5.910671 -3.618364 2.828525 0.926650 -0.206640 0.062120 0.113230 26.501837 12.004380 6.210051 44.626440 7.118104 -11.741521 124.294740 67.100490 88.221535 2.380991 -0.650081 -0.236000 0.224730 0.150120 -0.242880 
-0.293470 15.852610 -10.195250 -1.754702 10.532802 3.574772 -15.427996 10.710718 5.049632 -14.442793 -9.535034 -58.175032 3.612155 5.569212 40.248551 -0.189285 6.101120 2.414012 0.238090 -0.362220 0.247800 18.512878 -7.644842 4.877788 -14.782969 24.979262 -28.199027 34.242802 -27.504861 60.732808 -2.619363 -12.772902 0.416057 -0.278310 0.120740 0.289030 -3.638374 -2.046449 -9.575012 21.802298 5.056208 60.206171 -4.190777 13.712512 -10.754848 0.938666 -13.291289 -6.577740 -23.207212 3.449381 31.573375 3.298010 -7.634310 -30.830100 -29.873715 8.714816 -1.887382 -43.065846 20.597914 -10.449597 36.314054 -27.969249 -5.514361 -3.624606 2.835901 0.927820 -0.213210 0.091660 0.097620 25.007303 12.379733 6.618777 44.102809 6.991329 -13.411783 143.624371 66.963667 113.650036 2.066209 -0.981356 -0.212610 0.208280 0.135100 -0.249480 
-0.314030 15.928210 -10.184910 -1.242368 9.481283 0.335966 -15.444316 11.307440 4.709430 -13.332167 -7.713060 -53.559082 2.237940 6.208680 38.448215 -0.228931 5.833404 2.492538 0.270410 -0.331870 0.278100 18.392171 -7.956056 4.691308 -13.045982 24.098385 -23.997428 31.610080 -25.670841 60.926582 -2.545783 -12.443055 0.492510 -0.273940 0.076410 0.301640 -3.469939 -2.464242 -9.382942 20.473073 5.652225 63.844385 -3.497545 14.399838 -9.139836 1.326884 -12.289525 -7.313569 -21.956975 3.122852 34.410669 4.429300 -7.757290 -32.175620 -29.685151 6.749293 -1.505936 -41.126008 19.865630 -10.507774 37.047854 -27.837383 -5.950612 -3.576112 2.857181 0.964800 -0.246100 0.133610 0.096530 24.449617 14.210249 7.468503 42.638934 7.206680 -14.495916 163.918280 66.322521 140.259343 1.924339 -1.316912 -0.193950 0.191130 0.115390 -0.260490 
-0.317880 16.004360 -10.201280 -1.756673 9.591935 -2.076932 -15.438640 11.767969 4.471090 -12.834538 -6.635730 -49.586577 2.370121 5.712247 35.419624 -0.279484 5.160782 2.738812 0.315230 -0.250050 0.273900 18.315046 -8.244579 4.497342 -10.998069 22.538562 -20.656012 29.713352 -23.894851 59.635912 -2.439045 -11.975917 0.628969 -0.249580 0.062580 0.307030 -3.397957 -2.778925 -9.191828 20.781489 4.908475 65.901808 -2.738411 14.605320 -8.127874 1.240312 -11.961821 -7.193188 -21.665737 2.472772 35.562163 5.774210 -8.592550 -32.675890 -29.055632 6.743334 -1.684395 -39.262857 18.892654 -10.543112 36.997848 -29.859257 -6.715815 -3.533801 2.892735 0.936340 -0.254240 0.157060 0.128320 23.949334 14.080883 7.521553 40.582859 8.059264 -13.976031 -177.954317 64.207270 165.698153 1.907071 -1.592300 -0.146280 0.181490 0.074480 -0.227780 
-0.323340 16.086790 -10.228430 -1.917817 9.926353 -3.782393 -15.438644 12.164357 4.326089 -12.616908 -5.931296 -46.070505 2.207404 5.215590 31.925572 -0.359289 4.476324 2.998090 0.315460 -0.246310 0.279170 18.230579 -8.567236 4.257531 -9.430754 20.628182 -17.150093 27.597059 -22.092137 58.046998 -2.295727 -11.446576 0.783612 -0.258280 0.056590 0.295910 -3.314383 -3.006984 -9.033617 20.716316 4.549408 67.092841 -2.193524 15.029103 -7.332280 1.161912 -11.050634 -7.546642 -20.055342 1.983330 37.662774 6.985900 -8.733310 -32.352420 -27.111948 6.605351 -1.514275 -38.364716 18.455511 -11.222895 37.027909 -34.207754 -8.209257 -3.493102 2.888696 0.939620 -0.259960 0.164250 0.132290 22.251175 14.039262 7.904928 41.150316 9.180189 -13.391377 -159.703787 60.446490 -166.916333 2.002051 -1.675716 -0.143030 0.180250 0.059280 -0.228610 
-0.333580 16.177560 -10.278480 -3.000026 10.074620 -5.049584 -15.442451 12.518925 4.177633 -11.680741 -5.054240 -43.720288 2.285238 4.692460 28.505977 -0.467032 3.900437 3.209759 0.314080 -0.239390 0.300660 18.157477 -8.860206 4.056540 -7.099173 18.737484 -13.803179 25.622150 -20.341182 56.011300 -2.146405 -10.891215 0.949921 -0.249260 0.058190 0.295800 -3.235154 -3.170304 -8.885969 21.365618 4.156025 67.224819 -1.855813 15.878514 -6.303492 1.516357 -9.329026 -7.360719 -16.425989 0.697574 38.936611 6.012760 -8.219450 -31.434200 -26.010061 6.637067 -1.633552 -36.413053 17.928033 -11.669899 36.989952 -40.511914 -10.324933 -3.508219 2.892806 0.930530 -0.231830 0.161130 0.119810 20.282998 13.368412 7.796643 40.744945 11.068186 -12.216828 -149.994586 54.851825 -148.434632 2.090675 -1.582912 -0.150750 0.181300 0.057780 -0.246580 
